<?xml version="1.0" standalone="no"?><svg xmlns="http://www.w3.org/2000/svg" viewBox="0 0 1440 320"><path fill="#0099ff" fill-opacity="1" d="M0,32L30,74.7C60,117,120,203,180,202.7C240,203,300,117,360,117.3C420,117,480,203,540,224C600,245,660,203,720,186.7C780,171,840,181,900,186.7C960,192,1020,192,1080,197.3C1140,203,1200,213,1260,218.7C1320,224,1380,224,1410,224L1440,224L1440,320L1410,320C1380,320,1320,320,1260,320C1200,320,1140,320,1080,320C1020,320,960,320,900,320C840,320,780,320,720,320C660,320,600,320,540,320C480,320,420,320,360,320C300,320,240,320,180,320C120,320,60,320,30,320L0,320Z"></path></svg>